<svg xmlns="http://www.w3.org/2000/svg" viewBox="0 0 206.6 51.8" enable-background="new 0 0 206.6 51.8"><style type="text/css">.st0{fill:#FFFFFF;} .st1{fill:#EC0712;}</style><path d="M18.6 25.6l-1.8-6H7.6l-1.8 6H0L8.9.3h6.5l8.9 25.3h-5.7zm-3.1-10.5c-1.7-5.4-2.6-8.5-2.9-9.2-.2-.7-.4-1.3-.5-1.7-.4 1.5-1.5 5.1-3.3 10.9h6.7zM31.7 25.6L24.4 6.3h5.5l3.7 11c.4 1.4.7 2.7.8 3.9h.1c.1-1.1.3-2.4.8-3.9l3.7-11h5.5l-7.3 19.3h-5.5zM55.3 21.7c.9 0 2-.2 3.3-.6V25c-1.3.6-2.9.9-4.8.9-2.1 0-3.6-.5-4.6-1.6s-1.4-2.7-1.4-4.8v-9.3h-2.5V8l2.9-1.8 1.5-4.1H53v4.1h5.4v3.9H53v9.3c0 .7.2 1.3.6 1.7s1 .6 1.7.6zM80 15.9c0 3.1-.8 5.6-2.5 7.4-1.7 1.8-4 2.7-6.9 2.7-1.8 0-3.5-.4-4.9-1.2-1.4-.8-2.5-2-3.3-3.5-.8-1.5-1.1-3.3-1.1-5.3 0-3.1.8-5.6 2.5-7.3 1.6-1.7 4-2.6 6.9-2.6 1.8 0 3.5.4 4.9 1.2 1.4.8 2.5 2 3.3 3.5.7 1.3 1.1 3.1 1.1 5.1zm-13.3 0c0 1.9.3 3.3.9 4.3s1.6 1.5 3.1 1.5c1.4 0 2.4-.5 3-1.5.6-1 .9-2.4.9-4.3s-.3-3.3-.9-4.3c-.6-1-1.6-1.4-3-1.4s-2.4.5-3 1.4c-.7 1-1 2.4-1 4.3z" class="st0"/><path d="M82.7 18.3V14H92v4.3h-9.3z" class="st1"/><path d="M110.6 25.6H96.1V.4h14.5v4.4h-9.2v5.5h8.5v4.4h-8.5v6.5h9.2v4.4zM119.4 15.8l-6.2-9.4h6l3.7 6.1 3.8-6.1h6l-6.3 9.4 6.6 9.8h-6l-4-6.6-4.1 6.6h-6l6.5-9.8zM146.5 25.9c-2.3 0-4-.8-5.3-2.5h-.3c.2 1.6.3 2.5.3 2.8V34h-5.3V6.3h4.3l.7 2.5h.2c1.2-1.9 3-2.9 5.5-2.9 2.3 0 4.1.9 5.3 2.6 1.3 1.8 1.9 4.2 1.9 7.3 0 2.1-.3 3.8-.9 5.4s-1.5 2.7-2.6 3.5c-1 .8-2.3 1.2-3.8 1.2zm-1.6-15.7c-1.3 0-2.2.4-2.8 1.2-.6.8-.9 2.1-.9 4v.6c0 2.1.3 3.5.9 4.4.6.9 1.6 1.3 2.9 1.3 2.4 0 3.5-1.9 3.5-5.8 0-1.9-.3-3.3-.9-4.3-.5-1-1.4-1.4-2.7-1.4zM166.9 25.9c-3.1 0-5.5-.9-7.3-2.6S157 19.2 157 16s.8-5.7 2.4-7.5 3.8-2.6 6.7-2.6c2.7 0 4.8.8 6.4 2.3 1.5 1.6 2.3 3.7 2.3 6.4v2.6h-12.4c.1 1.5.5 2.7 1.3 3.5.8.8 2 1.3 3.5 1.3 1.2 0 2.3-.1 3.3-.4s2.1-.6 3.2-1.2v4.1c-.9.5-1.9.8-2.9 1-1.1.3-2.4.4-3.9.4zm-.7-16.2c-1.1 0-2 .4-2.6 1.1-.6.7-1 1.7-1.1 3h7.4c0-1.3-.4-2.3-1-3-.7-.7-1.6-1.1-2.7-1.1zM189.8 6c.7 0 1.3.1 1.8.2l-.4 4.9c-.4-.1-.9-.2-1.6-.2-1.7 0-3 .4-3.9 1.3-.9.9-1.4 2.1-1.4 3.6v9.8H179V6.3h4l.8 3.2h.3c.6-1.1 1.4-1.9 2.4-2.6s2.1-.9 3.3-.9zM203.2 21.7c.9 0 2-.2 3.3-.6V25c-1.3.6-2.9.9-4.8.9-2.1 0-3.6-.5-4.6-1.6s-1.4-2.7-1.4-4.8v-9.3h-2.5V8l2.9-1.8 1.5-4.1h3.4v4.1h5.4v3.9H201v9.3c0 .7.2 1.3.6 1.7s.9.6 1.6.6zM7.7 39.6c0 .6-.2 1.1-.5 1.5s-.8.6-1.5.7v.1c.8.1 1.4.3 1.7.7s.6.9.6 1.6c0 1-.3 1.7-.9 2.2-.6.5-1.6.8-2.8.8H0v-9.9h4.2c1.1 0 2 .2 2.6.6.6.3.9.9.9 1.7zm-1 .1c0-.6-.2-1-.6-1.2-.4-.2-1-.4-1.9-.4H.9v3.4h3.2c.9 0 1.6-.1 2-.4.4-.3.6-.8.6-1.4zm.3 4.5c0-1.2-.9-1.8-2.8-1.8H.9v4h3.4c1.8-.1 2.7-.8 2.7-2.2zM11.6 41.4h3.2c2.3 0 3.5.9 3.5 2.8 0 .9-.3 1.7-1 2.2-.7.5-1.6.8-2.8.8h-3.8v-9.9h.9v4.1zm0 .9v4h3c.9 0 1.5-.2 2-.5.5-.4.7-.9.7-1.6 0-.7-.2-1.1-.6-1.4s-1.1-.4-2.1-.4h-3zm9.3 4.9H20v-9.9h.9v9.9zM29.6 37.2h1.1L26.3 42l4.8 5.1h-1.2l-4.7-5v5h-.9v-9.9h.9V42l4.4-4.8zM31.1 37.2h.9l2.1 5.6c.6 1.7 1 2.9 1.2 3.5h.1c.3-.8.7-2 1.3-3.5l2.1-5.5h.9l-4.5 11.6c-.4.9-.7 1.6-.9 1.9-.2.3-.5.6-.9.7-.3.2-.7.2-1.2.2-.3 0-.7-.1-1.2-.2v-.8c.4.1.7.1 1.1.1.3 0 .6-.1.8-.2s.5-.4.6-.7c.2-.3.4-.8.7-1.5s.4-1.1.5-1.3l-3.6-9.9zM42.3 47.2h-.9v-9.9h7.9v9.9h-.9v-9.1h-6.1v9.1zM63.6 47.2l-.2-1.6h-.1c-.5.6-1 1.1-1.5 1.4-.5.3-1.2.4-1.9.4-1 0-1.7-.3-2.3-.8-.5-.5-.8-1.2-.8-2.1 0-1 .4-1.7 1.2-2.3.8-.5 2-.8 3.5-.9l1.9-.1v-.7c0-.9-.2-1.7-.6-2.1s-1-.7-1.9-.7c-.9 0-1.9.3-2.9.8l-.3-.8c1.1-.5 2.2-.8 3.2-.8 1.1 0 1.9.3 2.4.9.5.6.8 1.5.8 2.7v6.6h-.5zm-3.7-.7c1.1 0 1.9-.3 2.5-.9s.9-1.5.9-2.5v-1l-1.7.1c-1.4.1-2.4.3-3 .7s-.9.9-.9 1.7c0 .6.2 1.1.6 1.5.4.2.9.4 1.6.4zM75.1 39.6c0 .6-.2 1.1-.5 1.5s-.8.6-1.5.7v.1c.8.1 1.4.3 1.7.7s.5.9.5 1.6c0 1-.3 1.7-.9 2.2-.6.5-1.6.8-2.8.8h-4.2v-9.9h4.2c1.1 0 2 .2 2.6.6.6.3.9.9.9 1.7zm-1 .1c0-.6-.2-1-.6-1.2-.4-.2-1-.4-1.9-.4h-3.3v3.4h3.2c.9 0 1.6-.1 2-.4.4-.3.6-.8.6-1.4zm.3 4.5c0-1.2-.9-1.8-2.8-1.8h-3.2v4h3.4c1.7-.1 2.6-.8 2.6-2.2zM84.4 38h-3.3v9.2h-.9V38h-3.4v-.8h7.6v.8zM94.6 42.2c0 1.6-.4 2.9-1.2 3.8-.8.9-1.9 1.4-3.3 1.4-.9 0-1.6-.2-2.3-.6-.7-.4-1.2-1-1.5-1.8-.4-.8-.5-1.7-.5-2.7 0-1.6.4-2.9 1.2-3.8.8-.9 1.9-1.4 3.2-1.4 1.4 0 2.4.5 3.2 1.4s1.2 2.1 1.2 3.7zm-7.8 0c0 1.4.3 2.4.9 3.2.6.8 1.5 1.1 2.5 1.1s1.9-.4 2.5-1.1c.6-.8.9-1.8.9-3.2 0-1.4-.3-2.4-.9-3.2s-1.5-1.1-2.6-1.1-1.9.4-2.5 1.1c-.5.7-.8 1.8-.8 3.2z" class="st0"/><path d="M0 31.1h134v2.1H0z" class="st1"/></svg>