<?xml version="1.0" encoding="UTF-8" standalone="no"?>
<svg
   xmlns:dc="http://purl.org/dc/elements/1.1/"
   xmlns:cc="http://creativecommons.org/ns#"
   xmlns:rdf="http://www.w3.org/1999/02/22-rdf-syntax-ns#"
   xmlns:svg="http://www.w3.org/2000/svg"
   xmlns="http://www.w3.org/2000/svg"
   id="svg8"
   version="1.1"
   viewBox="0 0 67.733335 67.733335"
   height="256"
   width="256">
  <defs
     id="defs2">
    <style
       type="text/css"
       id="style180">
   <![CDATA[
    .fil0 {fill:#FEFEFE}
    .fil1 {fill:#FEFEFE;fill-rule:nonzero}
   ]]>
  </style>
  </defs>
  <metadata
     id="metadata5">
    <rdf:RDF>
      <cc:Work
         rdf:about="">
        <dc:format>image/svg+xml</dc:format>
        <dc:type
           rdf:resource="http://purl.org/dc/dcmitype/StillImage" />
        <dc:title></dc:title>
      </cc:Work>
    </rdf:RDF>
  </metadata>
  <g
     transform="translate(-74.507496,-19.519631)"
     id="layer1">
    <g
       transform="matrix(0.00993896,0,0,0.00993896,77.059035,33.955516)"
       id="g25"
       style="clip-rule:evenodd;fill-rule:evenodd;image-rendering:optimizeQuality;shape-rendering:geometricPrecision;text-rendering:geometricPrecision">
      <g
         transform="translate(-4142.0956,-88.192871)"
         id="g3855">
        <path
           class="fil0"
           d="m 10350.968,2910.1775 c -25.24,214.708 -75.86,440.4091 -102.89,681.329 0,0 -81.4,122.4881 -1042.2597,199.4493 l 955.4697,-257.7134 189.68,-623.0749 z m -6095.5897,0 c 25.25,214.708 75.86,440.4091 102.93,681.329 0,0 81.32,122.4881 1042.2,199.4493 l -955.49,-257.7134 -189.64,-623.0749 z m 4486.2,-426.2468 c -231.54,-122.229 -2663.79,-127.003 -2895.31,-4.764 -216.02,113.9768 -405.19,340.9037 -405.19,500.7164 0,188.8948 106.56,290.7722 487.79,347.8105 381.25,57.0083 2348.87,61.7822 2730.11,4.7639 381.22,-56.9883 487.76,-158.9056 487.76,-347.8503 0,-159.7429 -189.15,-386.6898 -405.15,-500.6765 z m 371.73,1275.9397 c 0,0 -128.72,-128.2687 -309.73,-123.5446 -181.12,4.7739 -2838.18,0 -3019.3,-4.764 -181.07,-4.7241 -309.73,123.5346 -309.73,123.5346 824.97,151.9491 2881.35,150.3943 3638.76,4.774 z m 219.18,-2732.1133 h 149.74 c 0,0 -89.32,-128.68732 -74.88,-141.37466 14.53,-12.62754 440.19,-52.89215 478.33,141.37466 38.1,194.2468 -403.45,108.7144 -403.45,108.7144 l -3.18,-56.9684 h -115.61 l -30.96,-51.746 z m -3803.94,1261.2889 c 0,0 -451.11,-601.5274 -1105.58,-620.5335 0,0 -175.31,425.6687 76.26,563.5651 150.13,82.3431 220.44,-18.9762 427.92,56.9684 207.45,76.0543 429.83,126.7239 601.4,0 z m 80.89,-55.6329 c 0,0 -350.22,-721.3844 -663.38,-887.0274 0,0 -347.02,24.8763 -457.65,252.0026 0,0 612.77,7.2158 1121.03,635.0248 z m -385.64,-1205.656 h -149.74 c 0,0 89.34,-128.64746 74.9,-141.3348 -14.54,-12.6674 -440.19,-52.93201 -478.37,141.3348 -38.08,194.2667 403.47,108.7842 403.47,108.7842 l 3.16,-57.0382 h 115.65 l 30.94,-51.746 z m 31.54,2133.6655 c -104.88,-280.2277 -810.11,-265.9956 -891.87,-436.9607 0,0 5.68,209.7348 153.25,265.9657 161.99,61.7125 629.01,104.4687 738.63,170.995 z M 10323.688,1708.0795 c -181.09,-493.979 -686.2197,-474.8932 -800.6097,-493.979 -114.36,-18.9563 -451.51,-860.16771 -724.3,-987.83842 -376.04,-175.948371 -2598.2,-190.389812 -3009.74,-4.77394 -274.57,123.83361 -609.97,968.91206 -724.29,987.88826 -114.45,18.9961 -619.53,0 -800.65,493.9491 -181.1,493.9192 -162.04,1263.3021 66.71,1994.7626 0,0 95.35,161.4372 1210.41,189.9712 0,0 114.41,-66.5263 581.38,0 467.09,66.4865 1875.58,71.2505 2342.6,4.774 466.97,-66.4964 581.4,0 581.4,0 1115.0497,-28.5241 1210.3897,-190.0211 1210.3897,-190.0211 228.75,-731.3707 247.81,-1500.7736 66.71,-1994.7427 z M 8760.6483,248.43752 c 190.43,90.51564 603.73,769.47268 557.98,838.17168 -21.08,31.6436 -4028.33,26.8896 -4049.48,-4.8138 -45.72,-68.6791 367.59,-747.56635 558.07,-838.13183 190.36,-90.57544 2742.97,-85.80149 2933.43,4.77395 z m 216.42,1984.98548 c 0,0 350.28,-721.3843 663.45,-887.0274 0,0 346.97,24.8764 457.5997,252.0027 0,0 -612.7397,7.2157 -1121.0497,635.0247 z m 82.18,60.4767 c 0,0 451.13,-601.647 1105.5797,-620.6332 0,0 175.31,425.7086 -76.23,563.6348 -150.1597,82.2734 -220.4697,-19.0659 -427.9297,56.9984 -207.47,75.9147 -429.83,126.6641 -601.42,0 z m 273.23,872.267 c 104.82,-280.2277 810.1197,-266.0155 891.7997,-436.9607 0,0 -5.63,209.7347 -153.12,265.9856 -162.0397,61.7623 -629.0997,104.4488 -738.6797,170.9751 z"
           id="path185"
           style="fill:#fefefe;stroke-width:0.99832296" />
        <path
           style="fill:#fefefe;fill-rule:nonzero;stroke-width:0.99832296"
           id="path201"
           d="m 4154.1001,2905.3637 c 0,0 -42,889.3894 235.06,995.1239 196.91,75.2071 622.67,86.1901 813.3,41.8791 190.59,-44.3907 38.13,-696.5977 38.13,-696.5977 l -1086.5,-340.4053 z"
           class="fil1" />
        <path
           style="fill:#fefefe;fill-rule:nonzero;stroke-width:0.99832296"
           id="path203"
           d="m 10404.21,2910.1775 c 0,0 42.02,889.3595 -235.06,995.084 -196.9095,75.1872 -622.6499,86.1802 -813.2599,41.8792 -190.58,-44.3509 -38.13,-696.6774 -38.13,-696.6774 L 10404.22,2910.1775 Z"
           class="fil1" />
      </g>
    </g>
  </g>
</svg>
