<?xml version="1.0" encoding="UTF-8" standalone="no"?>
<svg
   xmlns:dc="http://purl.org/dc/elements/1.1/"
   xmlns:cc="http://creativecommons.org/ns#"
   xmlns:rdf="http://www.w3.org/1999/02/22-rdf-syntax-ns#"
   xmlns:svg="http://www.w3.org/2000/svg"
   xmlns="http://www.w3.org/2000/svg"
   id="svg207"
   viewBox="0 0 14007.06 7557.35"
   style="shape-rendering:geometricPrecision; text-rendering:geometricPrecision; image-rendering:optimizeQuality; fill-rule:evenodd; clip-rule:evenodd"
   version="1.1"
   height="75.1122mm"
   width="139.216mm"
   xml:space="preserve"><metadata
   id="metadata211"><rdf:RDF><cc:Work
       rdf:about=""><dc:format>image/svg+xml</dc:format><dc:type
         rdf:resource="http://purl.org/dc/dcmitype/StillImage" /><dc:title></dc:title></cc:Work></rdf:RDF></metadata>
 <defs
   id="defs182">
  <style
   id="style180"
   type="text/css">
   <![CDATA[
    .fil0 {fill:#FEFEFE}
    .fil1 {fill:#FEFEFE;fill-rule:nonzero}
   ]]>
  </style>
 </defs>
 <g
   id="Слой_x0020_1">
  <metadata
   id="CorelCorpID_0Corel-Layer" />
  <g
   id="_874371760">
   <g
   id="g187">
    <path
   style="fill:#fefefe"
   id="path185"
   d="m 10336.24,2831.47 c -25.24,215.43 -75.86,441.89 -102.89,683.62 0,0 -81.4,122.9 -1042.26,200.12 l 955.47,-258.58 189.68,-625.17 z m -6095.59,0 c 25.25,215.43 75.86,441.89 102.93,683.62 0,0 81.32,122.9 1042.2,200.12 l -955.49,-258.58 -189.64,-625.17 z m 4486.2,-427.68 c -231.54,-122.64 -2663.79,-127.43 -2895.31,-4.78 -216.02,114.36 -405.19,342.05 -405.19,502.4 0,189.53 106.56,291.75 487.79,348.98 381.25,57.2 2348.87,61.99 2730.11,4.78 381.22,-57.18 487.76,-159.44 487.76,-349.02 0,-160.28 -189.15,-387.99 -405.15,-502.36 z m 371.73,1280.23 c 0,0 -128.72,-128.7 -309.73,-123.96 -181.12,4.79 -2838.18,0 -3019.3,-4.78 -181.07,-4.74 -309.73,123.95 -309.73,123.95 824.97,152.46 2881.35,150.9 3638.76,4.79 z m 219.18,-2741.3 h 149.74 c 0,0 -89.32,-129.12 -74.88,-141.85 14.53,-12.67 440.19,-53.07 478.33,141.85 38.1,194.9 -403.45,109.08 -403.45,109.08 l -3.18,-57.16 h -115.61 l -30.96,-51.92 z M 5513.82,2208.25 c 0,0 -451.11,-603.55 -1105.58,-622.62 0,0 -175.31,427.1 76.26,565.46 150.13,82.62 220.44,-19.04 427.92,57.16 207.45,76.31 429.83,127.15 601.4,0 z m 80.89,-55.82 c 0,0 -350.22,-723.81 -663.38,-890.01 0,0 -347.02,24.96 -457.65,252.85 0,0 612.77,7.24 1121.03,637.16 z M 5209.07,942.72 h -149.74 c 0,0 89.34,-129.08 74.9,-141.81 -14.54,-12.71 -440.19,-53.11 -478.37,141.81 -38.08,194.92 403.47,109.15 403.47,109.15 l 3.16,-57.23 h 115.65 l 30.94,-51.92 z m 31.54,2140.84 c -104.88,-281.17 -810.11,-266.89 -891.87,-438.43 0,0 5.68,210.44 153.25,266.86 161.99,61.92 629.01,104.82 738.63,171.57 z m 5068.35,-1458.23 c -181.09,-495.64 -686.22,-476.49 -800.61,-495.64 -114.36,-19.02 -451.51,-863.06 -724.3,-991.16 -376.04,-176.54 -2598.2,-191.03 -3009.74,-4.79 -274.57,124.25 -609.97,972.17 -724.29,991.21 -114.45,19.06 -619.53,0 -800.65,495.61 -181.1,495.58 -162.04,1267.55 66.71,2001.47 0,0 95.35,161.98 1210.41,190.61 0,0 114.41,-66.75 581.38,0 467.09,66.71 1875.58,71.49 2342.6,4.79 466.97,-66.72 581.4,0 581.4,0 1115.05,-28.62 1210.39,-190.66 1210.39,-190.66 228.75,-733.83 247.81,-1505.82 66.71,-2001.45 z M 8745.92,160.78 c 190.43,90.82 603.73,772.06 557.98,840.99 -21.08,31.75 -4028.33,26.98 -4049.48,-4.83 -45.72,-68.91 367.59,-750.08 558.07,-840.95 190.36,-90.88 2742.97,-86.09 2933.43,4.79 z m 216.42,1991.66 c 0,0 350.28,-723.81 663.45,-890.01 0,0 346.97,24.96 457.6,252.85 0,0 -612.74,7.24 -1121.05,637.16 z m 82.18,60.68 c 0,0 451.13,-603.67 1105.58,-622.72 0,0 175.31,427.14 -76.23,565.53 -150.16,82.55 -220.47,-19.13 -427.93,57.19 -207.47,76.17 -429.83,127.09 -601.42,0 z m 273.23,875.2 c 104.82,-281.17 810.12,-266.91 891.8,-438.43 0,0 -5.63,210.44 -153.12,266.88 -162.04,61.97 -629.1,104.8 -738.68,171.55 z"
   class="fil0" />
   </g>
   <path
   style="fill:#fefefe;fill-rule:nonzero"
   id="path189"
   d="m 632.07,6115.95 c -125.69,0 -236.03,-27.69 -331.45,-83.5 C 205.19,5976.64 131.48,5897.4 79.08,5795.15 26.68,5692.9 0.69,5574.04 0.69,5439.41 v -498.03 c 0,-134.62 25.99,-253.49 78.39,-355.74 52.4,-102.24 126.11,-181.49 221.54,-237.72 95.42,-56.23 205.77,-84.35 331.45,-84.35 103.94,0 199.81,22.58 287.14,66.89 87.33,44.31 160.19,107.36 218.98,189.15 58.8,81.38 98.42,175.95 119.29,283.31 v 0 H 996.33 v 0 c -15.77,-56.66 -42.18,-107.36 -79.24,-151.67 -37.07,-44.73 -80.52,-78.81 -130.37,-103.1 -49.84,-23.86 -101.4,-36.21 -154.64,-36.21 -74.13,0 -138.89,17.89 -194.7,53.68 -55.81,35.79 -99.27,86.07 -129.94,150.39 -30.68,64.77 -46.01,139.74 -46.01,225.38 v 498.03 c 0,84.78 15.33,159.77 46.01,224.52 30.68,65.19 74.13,115.03 129.94,150.39 55.81,35.37 120.57,53.26 194.7,53.26 54.1,0 105.65,-11.08 155.5,-33.66 49.42,-22.58 92.44,-55.81 129.51,-100.12 37.07,-43.88 63.48,-96.28 79.24,-157.2 v 0 h 261.15 v 0 c -20.87,107.36 -60.92,201.93 -120.13,283.31 -58.8,81.8 -132.08,144.85 -219.41,189.15 -87.34,44.73 -182.77,66.89 -285.86,66.89 z"
   class="fil1" />
   <path
   style="fill:#fefefe;fill-rule:nonzero"
   d="m 2038.81,4282.31 h 216.85 l 669.3,1814.9 H 2650.17 L 2147.02,4632.94 1644.3,6097.21 h -274.79 z m -360.84,1174.57 h 954.74 v 241.99 h -954.74 z"
   class="fil1"
   id="1" />
   <path
   style="fill:#fefefe;fill-rule:nonzero"
   d="m 3310.52,5087.51 h 619.03 c 48.57,0 91.17,-11.51 128.67,-34.93 37.49,-23.43 66.46,-56.24 86.91,-99.27 20.02,-43.03 30.24,-92.03 30.24,-147.83 v 0 c 0,-55.81 -10.22,-105.23 -30.24,-147.84 -20.45,-43.02 -49.42,-76.26 -86.49,-99.27 -36.63,-23.42 -80.1,-34.93 -129.09,-34.93 h -619.03 v -242.41 h 609.23 c 104.81,0 196.83,21.73 276.5,65.19 79.24,43.02 141.01,104.38 184.47,184.04 43.89,79.24 65.61,171.27 65.61,275.22 v 0 c 0,103.94 -22.16,195.54 -66.03,275.21 -44.31,79.24 -106.08,140.59 -185.32,184.04 -79.67,43.03 -171.27,64.77 -275.22,64.77 h -609.23 v -241.99 z m -111.19,-806.48 h 254.76 V 6097.2 h -254.76 z m 605.38,992.23 253.5,-57.09 464.37,881.04 h -302.06 z"
   class="fil1"
   id="2" />
   <path
   style="fill:#fefefe;fill-rule:nonzero"
   d="m 7307.87,4282.31 h 254.78 v 1814.9 h -254.78 z m -1030.99,0 h 254.76 v 1814.9 h -254.76 z m 158.49,800.09 h 1007.56 v 241.98 H 6435.37 Z"
   class="fil1"
   id="3" />
   <path
   style="fill:#fefefe;fill-rule:nonzero"
   d="m 8612.39,6115.95 c -126.53,0 -238.15,-27.69 -334.86,-83.08 -96.29,-55.38 -170.84,-133.34 -223.67,-234.74 -52.83,-100.97 -79.24,-218.13 -79.24,-351.05 v -514.22 c 0,-133.34 26.41,-250.51 79.24,-351.48 52.82,-100.97 127.38,-179.35 223.67,-234.74 96.71,-55.39 208.33,-83.08 334.86,-83.08 126.1,0 237.72,27.69 334.43,83.08 96.29,55.39 171.27,133.78 224.1,234.74 52.82,100.97 79.23,218.13 79.23,351.48 v 514.22 c 0,132.92 -26.41,250.09 -79.23,351.05 -52.83,101.4 -127.81,179.36 -224.1,234.74 -96.71,55.39 -208.33,83.08 -334.43,83.08 z m 0,-250.93 c 74.56,0 140.59,-17.04 197.68,-50.7 57.09,-33.66 100.97,-81.37 132.07,-143.58 31.53,-61.77 46.87,-133.34 46.87,-215.14 v -531.69 c 0,-81.38 -15.33,-153.38 -46.87,-215.14 -31.1,-62.2 -74.98,-109.92 -132.07,-143.58 -57.09,-33.66 -123.12,-50.7 -197.68,-50.7 -74.99,0 -141.02,17.04 -198.11,50.7 -57.09,33.66 -100.97,81.38 -132.07,143.58 -31.53,61.77 -46.87,133.77 -46.87,215.14 v 531.69 c 0,81.8 15.33,153.38 46.87,215.14 31.1,62.21 74.98,109.92 132.07,143.58 57.09,33.66 123.12,50.7 198.11,50.7 z"
   class="fil1"
   id="4" />
   <path
   style="fill:#fefefe;fill-rule:nonzero"
   d="m 10223.64,6115.95 c -134.2,0 -248.81,-26.41 -343.81,-79.24 -95.43,-52.82 -167.86,-129.93 -217.71,-230.91 -50.27,-100.97 -74.98,-222.81 -74.98,-365.11 V 4282.31 h 254.34 v 1166.9 c 0,132.5 33.66,234.74 100.11,307.16 66.47,72.43 160.62,108.64 282.04,108.64 122.27,0 216.84,-36.21 283.73,-108.64 67.31,-72.42 100.54,-174.67 100.54,-307.16 v -1166.9 h 254.76 v 1158.38 c 0,142.3 -25.13,264.14 -74.98,365.11 -49.84,100.98 -122.7,178.09 -218.55,230.91 -95.43,52.83 -210.89,79.24 -345.51,79.24 z"
   class="fil1"
   id="5" />
   <path
   style="fill:#fefefe;fill-rule:nonzero"
   d="m 11782.48,6115.95 c -87.33,0 -170.41,-8.52 -248.38,-25.13 -78.39,-16.62 -151.23,-41.32 -219.4,-74.56 -67.74,-33.66 -131.22,-74.99 -190.01,-124.83 v 0 l 158.48,-194.7 v 0 c 69.02,59.64 145.28,104.81 228.35,134.63 83.08,29.82 173.4,44.73 270.95,44.73 131.22,0 233.04,-24.29 305.46,-72.85 72.43,-48.57 108.64,-117.58 108.64,-206.62 v -1.28 c 0,-63.05 -16.19,-113.33 -48.99,-150.39 -33.23,-37.07 -75.41,-64.33 -127.39,-82.23 -51.98,-17.89 -119.29,-34.5 -201.51,-49.41 -2.56,-0.86 -5.54,-1.28 -8.1,-1.28 -2.98,0 -5.97,-0.43 -8.52,-1.28 l -18.32,-3.41 c -121.84,-20.88 -220.68,-44.73 -296.51,-70.72 -76.27,-26.41 -141.44,-74.13 -195.55,-143.58 -54.1,-69.44 -80.94,-168.28 -80.94,-296.52 v -1.28 c 0,-112.04 25.13,-207.9 75.41,-287.57 50.27,-79.24 123.98,-140.17 220.25,-181.5 96.71,-41.74 212.59,-62.62 348.5,-62.62 64.76,0 128.66,7.24 191.29,21.3 63.05,14.06 124.82,35.37 186.18,63.05 60.92,27.69 120.99,63.05 180.21,105.65 v 0 l -144.85,201.94 v 0 c -69.01,-50.7 -137.61,-88.62 -206.62,-114.18 -68.59,-25.13 -137.19,-37.92 -206.2,-37.92 -123.98,0 -220.69,24.71 -289.28,74.13 -68.59,49.42 -102.68,119.71 -102.68,210.45 v 1.28 c 0,62.21 17.47,111.2 52.83,146.99 35.36,35.79 79.67,62.2 132.49,79.24 52.83,17.03 126.11,34.93 220.26,53.26 3.41,0.85 6.39,1.28 9.37,1.7 2.99,0.42 5.97,1.28 9.38,2.13 4.26,0.85 8.52,1.7 13.63,2.56 5.11,0.42 9.37,1.28 13.63,2.12 109.91,22.59 201.51,49.42 275.22,80.1 73.7,30.68 135.48,80.52 184.89,149.11 49.42,68.59 74.13,162.32 74.13,281.61 v 2.13 c 0,110.77 -25.99,205.34 -78.39,284.16 -52.83,78.81 -128.67,138.46 -227.93,179.78 -99.69,41.33 -219.4,61.78 -360,61.78 z"
   class="fil1"
   id="6" />
   <path
   style="fill:#fefefe;fill-rule:nonzero"
   d="m 12785.8,4282.31 h 254.76 v 1814.9 h -254.76 z m 123.54,1572.91 h 1042.5 v 241.99 h -1042.5 z m 0,-780.06 h 904.89 v 241.99 h -904.89 z m 0,-792.85 h 1042.5 v 242.41 h -1042.5 z"
   class="fil1"
   id="7" />
   <path
   style="fill:#fefefe;fill-rule:nonzero"
   d="m 5161.02,5486.26 c -49.07,-51.6 -90.94,-105.01 -125.58,-160.94 -34.64,-55.58 -60.99,-113.31 -79.39,-172.86 -18.4,-59.54 -27.43,-120.17 -27.43,-182.24 0,-134.6 35.73,-238.89 107.91,-312.51 71.81,-73.62 173.21,-110.42 304.57,-110.42 130.27,0 231.31,35.37 302.77,106.1 71.45,71.08 107.17,171.41 107.17,300.96 v 21.29 h -215.43 v -21.29 c 0,-62.78 -16.96,-111.15 -50.89,-145.43 -33.92,-34.28 -81.91,-51.24 -143.62,-51.24 -62.79,0 -111.51,18.4 -145.43,55.58 -34.29,36.8 -51.24,89.13 -51.24,156.97 0,40.78 6.49,83.01 19.84,127.03 13.35,43.67 33.2,86.97 59.18,129.91 26.35,42.94 57.38,83.72 94.18,122.7 l 702.97,747.35 h -273.54 l -586.05,-610.95 z m 102.85,-64.59 c -88.41,0 -156.25,21.65 -204.25,65.68 -47.99,43.67 -71.81,105.37 -71.81,184.76 0,78.31 25.62,138.94 76.5,182.6 51.24,43.3 123.41,64.96 216.16,64.96 88.41,0 163.83,-23.82 226.99,-71.09 63.16,-46.92 110.79,-115.47 143.63,-205.33 32.84,-89.86 49.44,-198.47 49.44,-325.13 h 204.97 c 0,167.79 -26.35,311.06 -78.67,429.78 -52.69,118.72 -129.19,209.31 -230.24,271.74 -100.68,62.43 -221.93,93.46 -363.39,93.46 -96,0 -177.91,-17.32 -246.11,-51.97 -67.84,-34.28 -119.81,-84.8 -155.18,-150.48 -35.72,-66.03 -53.41,-145.43 -53.41,-238.54 0,-125.21 34.64,-225.9 103.57,-301.32 68.92,-75.42 166.72,-119.09 292.66,-130.99 l 89.13,181.87 z"
   class="fil1"
   id="8" />
   <path
   style="fill:#fefefe;fill-rule:nonzero"
   id="path199"
   d="m 448.13,6605.18 h 110.73 v 788.83 H 448.13 Z M 68.89,7288.83 h 524.6 v 105.18 H 68.89 Z m 485.71,0 h 110.54 v 268.51 H 554.6 Z M 0.01,6605.18 h 110.74 v 788.83 H 0.01 Z m 806.24,0 h 110.74 v 788.83 H 806.25 Z m 53.7,683.65 h 453.13 v 105.18 H 859.95 Z m 0,-339.05 h 393.31 v 105.18 H 859.95 Z m 0,-344.6 h 453.13 v 105.36 H 859.95 Z m 1058.46,0 h 110.73 v 788.83 h -110.73 z m -448.13,0 h 110.74 v 788.83 h -110.74 z m 68.88,347.75 h 437.94 v 105.18 h -437.94 z m 843.28,-283.13 h 110.55 v 724.21 h -110.55 z m -223.13,-64.62 h 556.64 v 105.36 h -556.64 z m 722.18,377.56 h 252.2 c 23.89,0 44.81,-5.55 62.96,-16.85 18.14,-11.11 32.04,-27.04 42.04,-47.59 9.99,-20.74 14.99,-44.44 14.99,-71.1 v 0 c 0,-27.22 -5,-51.11 -14.99,-71.66 -10,-20.56 -23.9,-36.67 -42.04,-47.96 -18.15,-11.48 -39.08,-17.03 -62.96,-17.03 h -252.2 v -105.36 h 248.5 c 47.04,0 88.33,9.99 124.26,30.17 35.74,20 63.51,48.34 83.14,84.82 19.81,36.66 29.63,78.88 29.63,127.03 v 0 c 0,48.14 -9.82,90.36 -29.63,126.66 -19.63,36.29 -47.4,64.43 -83.14,84.25 -35.93,19.99 -77.22,29.99 -124.26,29.99 h -248.5 v -105.36 z m -57.04,-377.56 h 110.74 v 788.83 h -110.74 z m 1248.25,796.98 c -54.62,0 -102.59,-12.03 -144.06,-36.29 -41.48,-24.26 -73.52,-58.71 -96.3,-103.15 -22.77,-44.44 -34.07,-96.11 -34.07,-154.61 v -216.47 c 0,-58.52 11.3,-110.18 34.07,-154.62 22.78,-44.44 54.81,-78.88 96.3,-103.32 41.47,-24.45 89.44,-36.66 144.06,-36.66 45.19,0 86.85,9.81 124.81,29.07 37.96,19.26 69.62,46.66 95.17,82.22 25.56,35.37 42.78,76.48 51.86,123.14 v 0 h -113.51 v 0 c -6.85,-24.63 -18.33,-46.66 -34.44,-65.92 -16.12,-19.45 -35,-34.26 -56.67,-44.81 -21.66,-10.37 -44.07,-15.75 -67.22,-15.75 -32.22,0 -60.37,7.78 -84.63,23.33 -24.26,15.55 -43.14,37.41 -56.47,65.37 -13.33,28.15 -20,60.74 -20,97.96 v 216.47 c 0,36.84 6.67,69.43 20,97.59 13.33,28.33 32.22,50 56.47,65.37 24.26,15.36 52.41,23.14 84.63,23.14 23.51,0 45.92,-4.81 67.59,-14.63 21.48,-9.81 40.18,-24.26 56.29,-43.52 16.11,-19.08 27.59,-41.85 34.44,-68.33 v 0 h 113.51 v 0 c -9.08,46.66 -26.48,87.78 -52.22,123.14 -25.56,35.55 -57.41,62.95 -95.37,82.21 -37.95,19.45 -79.43,29.08 -124.25,29.08 z m 475.16,-419.42 h 252.2 c 23.89,0 44.81,-5.55 62.96,-16.85 18.14,-11.11 32.04,-27.04 42.04,-47.59 9.99,-20.74 14.99,-44.44 14.99,-71.1 v 0 c 0,-27.22 -5,-51.11 -14.99,-71.66 -10,-20.56 -23.9,-36.67 -42.04,-47.96 -18.15,-11.48 -39.08,-17.03 -62.96,-17.03 h -252.2 v -105.36 h 248.5 c 47.04,0 88.33,9.99 124.26,30.17 35.74,20 63.51,48.34 83.14,84.82 19.81,36.66 29.63,78.88 29.63,127.03 v 0 c 0,48.14 -9.82,90.36 -29.63,126.66 -19.63,36.29 -47.4,64.43 -83.14,84.25 -35.93,19.99 -77.22,29.99 -124.26,29.99 h -248.5 v -105.36 z m -57.04,-377.56 h 110.74 v 788.83 h -110.74 z m 941.98,796.98 c -55,0 -103.51,-12.03 -145.55,-36.11 -41.85,-24.08 -74.25,-57.96 -97.21,-102.03 -22.96,-43.89 -34.44,-94.81 -34.44,-152.58 v -223.5 c 0,-57.96 11.48,-108.88 34.44,-152.77 22.96,-43.88 55.37,-77.96 97.21,-102.02 42.04,-24.08 90.55,-36.11 145.55,-36.11 54.81,0 103.33,12.03 145.37,36.11 41.85,24.07 74.43,58.14 97.39,102.02 22.96,43.89 34.44,94.81 34.44,152.77 v 223.5 c 0,57.77 -11.48,108.69 -34.44,152.58 -22.96,44.07 -55.55,77.96 -97.39,102.03 -42.04,24.08 -90.55,36.11 -145.37,36.11 z m 0,-109.07 c 32.41,0 61.11,-7.42 85.92,-22.03 24.81,-14.63 43.89,-35.38 57.4,-62.41 13.7,-26.84 20.37,-57.95 20.37,-93.51 v -231.1 c 0,-35.37 -6.67,-66.66 -20.37,-93.51 -13.51,-27.04 -32.59,-47.77 -57.4,-62.4 -24.81,-14.63 -53.52,-22.03 -85.92,-22.03 -32.59,0 -61.29,7.41 -86.11,22.03 -24.81,14.63 -43.89,35.37 -57.4,62.4 -13.7,26.85 -20.37,58.14 -20.37,93.51 v 231.1 c 0,35.56 6.67,66.67 20.37,93.51 13.51,27.04 32.59,47.78 57.4,62.41 24.81,14.62 53.52,22.03 86.11,22.03 z m 840.32,-687.92 h 110.74 V 7394 h -110.74 z m -172.58,542 c -50.19,0 -93.33,-9.81 -129.07,-29.26 -35.74,-19.63 -62.95,-48.14 -81.66,-85.55 -18.7,-37.4 -27.96,-82.4 -27.96,-135.36 v -291.83 h 110.74 v 295.71 c 0,43.71 12.03,77.59 36.29,101.48 24.26,23.89 58.52,35.74 102.59,35.74 51.29,0 91.11,-12.96 119.25,-38.71 28.33,-25.92 42.41,-62.4 42.41,-109.44 v -62.4 h 34.62 v 58.7 c 0,55 -8.14,102.03 -24.26,141.1 -16.29,38.89 -39.99,68.7 -70.91,89.07 -30.93,20.56 -68.15,30.74 -112.03,30.74 z m 926.62,-542 h 110.73 V 7394 h -110.73 z m -448.13,0 h 110.74 V 7394 h -110.74 z m 68.88,347.75 h 437.94 v 105.18 h -437.94 z m 946.24,449.23 c -55,0 -103.51,-12.03 -145.55,-36.11 -41.85,-24.08 -74.25,-57.96 -97.21,-102.03 -22.96,-43.89 -34.44,-94.81 -34.44,-152.58 v -223.5 c 0,-57.96 11.48,-108.88 34.44,-152.77 22.96,-43.88 55.37,-77.96 97.21,-102.02 42.04,-24.08 90.55,-36.11 145.55,-36.11 54.81,0 103.33,12.03 145.37,36.11 41.85,24.07 74.43,58.14 97.39,102.02 22.96,43.89 34.44,94.81 34.44,152.77 v 223.5 c 0,57.77 -11.48,108.69 -34.44,152.58 -22.96,44.07 -55.55,77.96 -97.39,102.03 -42.04,24.08 -90.55,36.11 -145.37,36.11 z m 0,-109.07 c 32.41,0 61.11,-7.42 85.92,-22.03 24.81,-14.63 43.89,-35.38 57.4,-62.41 13.7,-26.84 20.37,-57.95 20.37,-93.51 v -231.1 c 0,-35.37 -6.67,-66.66 -20.37,-93.51 -13.51,-27.04 -32.59,-47.77 -57.4,-62.4 -24.81,-14.63 -53.52,-22.03 -85.92,-22.03 -32.59,0 -61.29,7.41 -86.11,22.03 -24.81,14.63 -43.89,35.37 -57.4,62.4 -13.7,26.85 -20.37,58.14 -20.37,93.51 v 231.1 c 0,35.56 6.67,66.67 20.37,93.51 13.51,27.04 32.59,47.78 57.4,62.41 24.81,14.62 53.52,22.03 86.11,22.03 z m 445.16,-687.92 h 110.74 v 788.83 h -110.74 z m 54.26,0 h 387.94 v 105.36 h -387.94 z m 757.53,796.98 c -55,0 -103.51,-12.03 -145.55,-36.11 -41.85,-24.08 -74.25,-57.96 -97.21,-102.03 -22.96,-43.89 -34.44,-94.81 -34.44,-152.58 v -223.5 c 0,-57.96 11.48,-108.88 34.44,-152.77 22.96,-43.88 55.37,-77.96 97.21,-102.02 42.04,-24.08 90.55,-36.11 145.55,-36.11 54.81,0 103.33,12.03 145.37,36.11 41.85,24.07 74.43,58.14 97.39,102.02 22.96,43.89 34.44,94.81 34.44,152.77 v 223.5 c 0,57.77 -11.48,108.69 -34.44,152.58 -22.96,44.07 -55.55,77.96 -97.39,102.03 -42.04,24.08 -90.55,36.11 -145.37,36.11 z m 0,-109.07 c 32.41,0 61.11,-7.42 85.92,-22.03 24.81,-14.63 43.89,-35.38 57.4,-62.41 13.7,-26.84 20.37,-57.95 20.37,-93.51 v -231.1 c 0,-35.37 -6.67,-66.66 -20.37,-93.51 -13.51,-27.04 -32.59,-47.77 -57.4,-62.4 -24.81,-14.63 -53.52,-22.03 -85.92,-22.03 -32.59,0 -61.29,7.41 -86.11,22.03 -24.81,14.63 -43.89,35.37 -57.4,62.4 -13.7,26.85 -20.37,58.14 -20.37,93.51 v 231.1 c 0,35.56 6.67,66.67 20.37,93.51 13.51,27.04 32.59,47.78 57.4,62.41 24.81,14.62 53.52,22.03 86.11,22.03 z m 819.57,-1.67 h 213.69 c 56.11,0 97.03,-10.55 122.59,-32.04 25.74,-21.29 38.52,-51.29 38.52,-89.99 v -1.67 c 0,-26.66 -4.63,-49.62 -13.7,-68.89 -9.26,-19.07 -23.89,-33.89 -43.71,-44.25 -19.99,-10.18 -45.37,-15.37 -76.48,-15.37 h -240.91 v -99.81 h 240.91 c 40.74,0 71.67,-9.63 92.4,-28.7 20.93,-19.26 31.3,-47.59 31.3,-85.18 v 0 c 0,-39.44 -11.67,-68.89 -34.81,-88.52 -23.15,-19.44 -57.78,-29.25 -104.08,-29.25 h -225.73 v -102.59 h 245.73 c 50.92,0 93.7,8.7 127.95,26.11 34.45,17.41 60.19,41.85 77.22,73.69 16.85,31.85 25.36,69.82 25.36,114.08 v 0 c 0,27.04 -5.18,52.4 -15.74,76.1 -10.37,23.69 -26.48,43.89 -47.96,60.73 -21.48,16.85 -48.14,28.15 -79.99,33.89 31.84,4.82 59.25,16.12 82.4,33.89 23.14,17.97 40.92,40.37 53.14,67.04 12.41,26.84 18.51,55.73 18.51,86.84 v 1.67 c 0,42.59 -9.45,80.18 -28.33,112.77 -18.7,32.59 -45.74,57.77 -80.73,75.37 -35,17.78 -75.92,26.66 -122.59,26.66 h -254.99 v -102.59 z m -65.18,-686.25 h 110.18 v 788.83 h -110.18 z m 774.22,683.65 h 227.76 c 25.36,0 47.04,-5.18 65,-15.18 17.78,-10.18 31.48,-24.99 40.92,-44.62 9.45,-19.45 14.08,-42.96 14.08,-70.55 v 0 c 0,-27.78 -4.63,-51.48 -14.08,-70.92 -9.44,-19.63 -23.14,-34.44 -40.92,-44.81 -17.96,-10.37 -39.63,-15.37 -65,-15.37 h -227.76 v -105.36 h 224.06 c 49.81,0 92.59,9.27 127.95,27.78 35.56,18.33 62.59,45.37 81.11,80.73 18.7,35.56 27.96,78.15 27.96,127.96 v 0 c 0,49.62 -9.26,92.03 -27.96,127.4 -18.51,35.18 -45.55,62.03 -81.11,80.55 -35.37,18.33 -78.14,27.59 -127.95,27.59 h -224.06 v -105.18 z m -57.04,-683.65 h 110.74 v 788.83 h -110.74 z m 732.91,788.83 h -110.54 v -788.83 h 110.54 z m 398.86,-432.93 228.88,-355.9 h 138.88 l -311.82,452.93 -55.93,-97.03 z m -0.55,85.73 97.03,-57.04 304.43,404.24 h -153.51 z m -202.95,-441.64 h 110.74 v 788.83 h -110.74 z m 53.7,344.6 h 246.84 v 105.18 h -246.84 z m 615.89,-344.6 h 125.74 l 231.65,564.78 -71.49,88.51 -285.91,-653.29 z m 398.68,625.51 c -14.08,38.33 -30,70.19 -47.96,95.18 -17.96,25.18 -39.07,44.26 -63.52,57.04 -24.44,12.78 -53.14,19.26 -85.91,19.26 h -91.66 v -109.07 h 91.66 c 16.66,0 31.29,-3.89 44.07,-11.85 12.96,-7.97 24.26,-19.63 34.26,-35 10,-15.36 19.07,-34.81 27.41,-58.33 l 201.83,-582.74 h 120.36 z m 792.55,-625.51 h 110.73 v 788.83 h -110.73 z m -448.13,0 h 110.74 v 788.83 h -110.74 z m 68.88,0 h 437.94 v 105.36 h -437.94 z m 889.4,0 h 94.25 l 290.92,788.83 h -119.44 l -218.69,-636.44 -218.5,636.44 h -119.44 l 290.92,-788.83 z m -156.85,510.52 h 414.97 v 105.18 h -414.97 z"
   class="fil1" />
   <path
   style="fill:#fefefe;fill-rule:nonzero"
   id="path201"
   d="m 4154.1,2864.31 c 0,0 -42,892.38 235.06,998.47 196.91,75.46 622.67,86.48 813.3,42.02 190.59,-44.54 38.13,-698.94 38.13,-698.94 l -1086.5,-341.55 z"
   class="fil1" />
   <path
   style="fill:#fefefe;fill-rule:nonzero"
   id="path203"
   d="m 10404.21,2869.14 c 0,0 42.02,892.35 -235.06,998.43 -196.91,75.44 -622.65,86.47 -813.26,42.02 -190.58,-44.5 -38.13,-699.02 -38.13,-699.02 l 1086.46,-341.43 z"
   class="fil1" />
  </g>
 </g>
</svg>